<mxfile host="app.diagrams.net" agent="Mozilla/5.0 (Windows NT 10.0; Win64; x64) AppleWebKit/537.36 (KHTML, like Gecko) Chrome/137.0.0.0 Safari/537.36" version="28.0.3">
  <diagram id="prtHgNgQTEPvFCAcTncT" name="Page-1">
    <mxGraphModel dx="2733" dy="2182" grid="1" gridSize="10" guides="1" tooltips="1" connect="1" arrows="1" fold="1" page="1" pageScale="1" pageWidth="827" pageHeight="1169" math="0" shadow="0">
      <root>
        <mxCell id="0" />
        <mxCell id="1" parent="0" />
        <mxCell id="dNxyNK7c78bLwvsdeMH5-11" value="&lt;span style=&quot;text-align: left; text-wrap-mode: wrap;&quot;&gt;SaveManager&lt;/span&gt;" style="swimlane;html=1;startSize=20;horizontal=1;containerType=tree;glass=0;fontSize=20;fillColor=#f9f7ed;strokeColor=#36393d;" parent="1" vertex="1">
          <mxGeometry x="-460" y="-40" width="1450" height="490" as="geometry" />
        </mxCell>
        <UserObject label="SaveManager&lt;div&gt;&lt;br&gt;&lt;/div&gt;&lt;div&gt;&lt;span style=&quot;font-weight: normal;&quot;&gt;&lt;i&gt;public static SaveManager instance;&lt;/i&gt;&lt;/span&gt;&lt;/div&gt;&lt;div&gt;&lt;span style=&quot;font-weight: normal;&quot;&gt;&lt;i&gt;[SerializeField] private string fileName;&lt;/i&gt;&lt;/span&gt;&lt;/div&gt;&lt;div&gt;&lt;span style=&quot;font-weight: normal;&quot;&gt;&lt;i&gt;&lt;font style=&quot;color: rgb(0, 8, 255);&quot;&gt;private &lt;span style=&quot;background-color: light-dark(rgb(255, 204, 153), rgb(237, 237, 237));&quot;&gt;FileDataHandler dataHandler;&lt;/span&gt;&lt;/font&gt;&lt;/i&gt;&lt;/span&gt;&lt;/div&gt;&lt;div&gt;&lt;span style=&quot;font-weight: 400;&quot;&gt;&lt;i&gt;&lt;font style=&quot;color: rgb(0, 8, 255);&quot;&gt;private GameData gameData;&lt;/font&gt;&lt;/i&gt;&lt;/span&gt;&lt;/div&gt;&lt;div&gt;&lt;span style=&quot;font-weight: 400;&quot;&gt;&lt;i&gt;&lt;font style=&quot;color: rgb(0, 8, 255);&quot;&gt;private List&amp;lt;ISaveManager&amp;gt;&amp;nbsp; saveManagers;&lt;/font&gt;&lt;/i&gt;&lt;/span&gt;&lt;/div&gt;" name="Tessa Miller" position="CFO" location="Office 1" email="me@example.com" placeholders="1" id="dNxyNK7c78bLwvsdeMH5-12">
          <mxCell style="label;image=https://cdn3.iconfinder.com/data/icons/user-avatars-1/512/users-3-128.png;whiteSpace=wrap;html=1;rounded=0;glass=0;treeMoving=1;treeFolding=1;fontSize=20;" parent="dNxyNK7c78bLwvsdeMH5-11" vertex="1">
            <mxGeometry x="360" y="50" width="760" height="190" as="geometry" />
          </mxCell>
        </UserObject>
        <mxCell id="dNxyNK7c78bLwvsdeMH5-13" value="" style="endArrow=blockThin;endFill=1;fontSize=11;edgeStyle=elbowEdgeStyle;elbow=vertical;rounded=0;" parent="dNxyNK7c78bLwvsdeMH5-11" source="dNxyNK7c78bLwvsdeMH5-12" target="dNxyNK7c78bLwvsdeMH5-14" edge="1">
          <mxGeometry relative="1" as="geometry" />
        </mxCell>
        <UserObject label="NewGame()&lt;div&gt;{&lt;/div&gt;&lt;div&gt;&lt;span style=&quot;white-space: pre;&quot;&gt;&#x9;&lt;/span&gt;gameData = new GameData();&lt;br&gt;&lt;/div&gt;&lt;div&gt;&lt;br&gt;&lt;/div&gt;&lt;div&gt;}&lt;br&gt;&lt;/div&gt;" name="Edward Morrison" position="Brand Manager" location="Office 2" email="me@example.com" placeholders="1" id="dNxyNK7c78bLwvsdeMH5-14">
          <mxCell style="label;image=https://cdn3.iconfinder.com/data/icons/user-avatars-1/512/users-10-3-128.png;whiteSpace=wrap;html=1;rounded=0;glass=0;treeFolding=1;treeMoving=1;fillColor=#f8cecc;strokeColor=#b85450;" parent="dNxyNK7c78bLwvsdeMH5-11" vertex="1">
            <mxGeometry x="40" y="360" width="270" height="80" as="geometry" />
          </mxCell>
        </UserObject>
        <mxCell id="dNxyNK7c78bLwvsdeMH5-15" value="" style="endArrow=blockThin;endFill=1;fontSize=11;edgeStyle=elbowEdgeStyle;elbow=vertical;rounded=0;" parent="dNxyNK7c78bLwvsdeMH5-11" source="dNxyNK7c78bLwvsdeMH5-12" target="dNxyNK7c78bLwvsdeMH5-16" edge="1">
          <mxGeometry relative="1" as="geometry" />
        </mxCell>
        <UserObject label="LoadGame()&lt;div&gt;{&lt;br&gt;}&lt;/div&gt;" name="Evan Valet" position="HR Director" location="Office 4" email="me@example.com" placeholders="1" id="dNxyNK7c78bLwvsdeMH5-16">
          <mxCell style="label;image=https://cdn3.iconfinder.com/data/icons/user-avatars-1/512/users-9-2-128.png;whiteSpace=wrap;html=1;rounded=0;glass=0;treeFolding=1;treeMoving=1;fillColor=#dae8fc;strokeColor=#6c8ebf;" parent="dNxyNK7c78bLwvsdeMH5-11" vertex="1">
            <mxGeometry x="340" y="360" width="260" height="80" as="geometry" />
          </mxCell>
        </UserObject>
        <mxCell id="dNxyNK7c78bLwvsdeMH5-17" value="" style="endArrow=blockThin;endFill=1;fontSize=11;edgeStyle=elbowEdgeStyle;elbow=vertical;rounded=0;" parent="dNxyNK7c78bLwvsdeMH5-11" source="dNxyNK7c78bLwvsdeMH5-12" target="dNxyNK7c78bLwvsdeMH5-18" edge="1">
          <mxGeometry relative="1" as="geometry" />
        </mxCell>
        <UserObject label="SaveGame()&lt;div&gt;{&lt;/div&gt;&lt;div&gt;}&lt;/div&gt;" name="Alison Donovan" position="System Admin" location="Office 3" email="me@example.com" placeholders="1" id="dNxyNK7c78bLwvsdeMH5-18">
          <mxCell style="label;image=https://cdn3.iconfinder.com/data/icons/user-avatars-1/512/users-2-128.png;whiteSpace=wrap;html=1;rounded=0;glass=0;fillColor=#d5e8d4;strokeColor=#82b366;" parent="dNxyNK7c78bLwvsdeMH5-11" vertex="1">
            <mxGeometry x="650" y="360" width="180" height="80" as="geometry" />
          </mxCell>
        </UserObject>
        <mxCell id="LWeH_9sK6wfF5uPUEN-5-2" value="NewGame()" style="rounded=1;whiteSpace=wrap;html=1;fillColor=#f8cecc;strokeColor=#b85450;" vertex="1" parent="dNxyNK7c78bLwvsdeMH5-11">
          <mxGeometry x="480" y="400" width="80" height="20" as="geometry" />
        </mxCell>
        <UserObject label="private List&amp;lt;ISaveManager&amp;gt; FindAllSaveManagers()" name="Alison Donovan" position="System Admin" location="Office 3" email="me@example.com" placeholders="1" id="LWeH_9sK6wfF5uPUEN-5-27">
          <mxCell style="label;image=https://cdn3.iconfinder.com/data/icons/user-avatars-1/512/users-2-128.png;whiteSpace=wrap;html=1;rounded=0;glass=0;fillColor=#ffff88;strokeColor=#36393d;" vertex="1" parent="dNxyNK7c78bLwvsdeMH5-11">
            <mxGeometry x="880" y="360" width="250" height="80" as="geometry" />
          </mxCell>
        </UserObject>
        <mxCell id="LWeH_9sK6wfF5uPUEN-5-28" value="" style="endArrow=blockThin;endFill=1;fontSize=11;edgeStyle=elbowEdgeStyle;elbow=vertical;rounded=0;" edge="1" parent="dNxyNK7c78bLwvsdeMH5-11" source="dNxyNK7c78bLwvsdeMH5-12" target="LWeH_9sK6wfF5uPUEN-5-27">
          <mxGeometry relative="1" as="geometry">
            <mxPoint x="470" y="240" as="sourcePoint" />
            <mxPoint x="740" y="360" as="targetPoint" />
          </mxGeometry>
        </mxCell>
        <UserObject label="OnApplicationQuit()" name="Alison Donovan" position="System Admin" location="Office 3" email="me@example.com" placeholders="1" id="LWeH_9sK6wfF5uPUEN-5-29">
          <mxCell style="label;image=https://cdn3.iconfinder.com/data/icons/user-avatars-1/512/users-2-128.png;whiteSpace=wrap;html=1;rounded=0;glass=0;fillColor=#ffcc99;strokeColor=#36393d;" vertex="1" parent="dNxyNK7c78bLwvsdeMH5-11">
            <mxGeometry x="1240" y="360" width="180" height="80" as="geometry" />
          </mxCell>
        </UserObject>
        <mxCell id="LWeH_9sK6wfF5uPUEN-5-30" value="" style="endArrow=blockThin;endFill=1;fontSize=11;edgeStyle=elbowEdgeStyle;elbow=vertical;rounded=0;" edge="1" parent="dNxyNK7c78bLwvsdeMH5-11" source="dNxyNK7c78bLwvsdeMH5-12" target="LWeH_9sK6wfF5uPUEN-5-29">
          <mxGeometry relative="1" as="geometry">
            <mxPoint x="470" y="240" as="sourcePoint" />
            <mxPoint x="1060" y="360" as="targetPoint" />
          </mxGeometry>
        </mxCell>
        <mxCell id="LWeH_9sK6wfF5uPUEN-5-6" value="FileDataHandler" style="swimlane;html=1;startSize=20;horizontal=1;containerType=tree;glass=0;fontSize=20;fillColor=#ffcc99;strokeColor=#36393d;" vertex="1" parent="1">
          <mxGeometry x="1100" y="-30" width="910" height="530" as="geometry" />
        </mxCell>
        <UserObject label="&lt;div&gt;&lt;i style=&quot;&quot;&gt;&lt;br&gt;&lt;/i&gt;&lt;/div&gt;&lt;div&gt;&lt;i style=&quot;&quot;&gt;FileDataHandler&lt;/i&gt;&lt;/div&gt;&lt;span style=&quot;font-weight: normal;&quot;&gt;&lt;i&gt;&lt;div&gt;&lt;span style=&quot;font-weight: normal;&quot;&gt;&lt;i&gt;&lt;br&gt;&lt;/i&gt;&lt;/span&gt;&lt;/div&gt;private string dataDirPath;&lt;/i&gt;&lt;/span&gt;&lt;div&gt;&lt;span style=&quot;font-weight: normal;&quot;&gt;&lt;i&gt;private string dataFileName;&lt;/i&gt;&lt;/span&gt;&lt;/div&gt;&lt;div&gt;&lt;span style=&quot;font-weight: normal;&quot;&gt;&lt;i&gt;&lt;br&gt;&lt;/i&gt;&lt;/span&gt;&lt;/div&gt;&lt;div&gt;&lt;i&gt;public FileDataHandler(string _dataDirPath, string _dataFileName)&lt;/i&gt;&lt;/div&gt;&lt;div&gt;&lt;span style=&quot;font-weight: normal;&quot;&gt;&lt;i&gt;{&lt;/i&gt;&lt;/span&gt;&lt;/div&gt;&lt;div&gt;&lt;span style=&quot;font-weight: normal;&quot;&gt;&lt;i&gt;&lt;span style=&quot;white-space: pre;&quot;&gt;&#x9;&lt;/span&gt;dataDirPath = _dataDirPath;&lt;/i&gt;&lt;/span&gt;&lt;/div&gt;&lt;div&gt;&lt;span style=&quot;font-weight: normal;&quot;&gt;&lt;i&gt;&lt;span style=&quot;white-space: pre;&quot;&gt;&#x9;&lt;/span&gt;dataFileName = _dataFileName;&lt;br&gt;&lt;/i&gt;&lt;/span&gt;&lt;/div&gt;&lt;div&gt;&lt;span style=&quot;font-weight: normal;&quot;&gt;&lt;i&gt;}&lt;/i&gt;&lt;/span&gt;&lt;/div&gt;" name="Tessa Miller" position="CFO" location="Office 1" email="me@example.com" placeholders="1" link="https://www.draw.io" id="LWeH_9sK6wfF5uPUEN-5-7">
          <mxCell style="label;image=https://cdn3.iconfinder.com/data/icons/user-avatars-1/512/users-3-128.png;whiteSpace=wrap;html=1;rounded=0;glass=0;treeMoving=1;treeFolding=1;fontSize=20;" vertex="1" parent="LWeH_9sK6wfF5uPUEN-5-6">
            <mxGeometry x="90" y="40" width="760" height="280" as="geometry" />
          </mxCell>
        </UserObject>
        <mxCell id="LWeH_9sK6wfF5uPUEN-5-8" value="" style="endArrow=blockThin;endFill=1;fontSize=11;edgeStyle=elbowEdgeStyle;elbow=vertical;rounded=0;" edge="1" parent="LWeH_9sK6wfF5uPUEN-5-6" source="LWeH_9sK6wfF5uPUEN-5-7" target="LWeH_9sK6wfF5uPUEN-5-9">
          <mxGeometry relative="1" as="geometry" />
        </mxCell>
        <UserObject label="&lt;div&gt;public void Save(GameData _data)&lt;/div&gt;" name="Edward Morrison" position="Brand Manager" location="Office 2" email="me@example.com" placeholders="1" id="LWeH_9sK6wfF5uPUEN-5-9">
          <mxCell style="label;image=https://cdn3.iconfinder.com/data/icons/user-avatars-1/512/users-10-3-128.png;whiteSpace=wrap;html=1;rounded=0;glass=0;treeFolding=1;treeMoving=1;fillColor=#f8cecc;strokeColor=#b85450;fontSize=12;" vertex="1" parent="LWeH_9sK6wfF5uPUEN-5-6">
            <mxGeometry x="190" y="360" width="270" height="80" as="geometry" />
          </mxCell>
        </UserObject>
        <mxCell id="LWeH_9sK6wfF5uPUEN-5-10" value="" style="endArrow=blockThin;endFill=1;fontSize=11;edgeStyle=elbowEdgeStyle;elbow=vertical;rounded=0;" edge="1" parent="LWeH_9sK6wfF5uPUEN-5-6" source="LWeH_9sK6wfF5uPUEN-5-7" target="LWeH_9sK6wfF5uPUEN-5-11">
          <mxGeometry relative="1" as="geometry" />
        </mxCell>
        <UserObject label="&lt;div&gt;// return loaded gamedata;&lt;/div&gt;public GameData Load()" name="Evan Valet" position="HR Director" location="Office 4" email="me@example.com" placeholders="1" id="LWeH_9sK6wfF5uPUEN-5-11">
          <mxCell style="label;image=https://cdn3.iconfinder.com/data/icons/user-avatars-1/512/users-9-2-128.png;whiteSpace=wrap;html=1;rounded=0;glass=0;treeFolding=1;treeMoving=1;fillColor=#dae8fc;strokeColor=#6c8ebf;" vertex="1" parent="LWeH_9sK6wfF5uPUEN-5-6">
            <mxGeometry x="490" y="360" width="260" height="80" as="geometry" />
          </mxCell>
        </UserObject>
        <mxCell id="LWeH_9sK6wfF5uPUEN-5-36" style="edgeStyle=orthogonalEdgeStyle;rounded=0;orthogonalLoop=1;jettySize=auto;html=1;exitX=0.875;exitY=0.5;exitDx=0;exitDy=0;exitPerimeter=0;" edge="1" parent="LWeH_9sK6wfF5uPUEN-5-6" source="LWeH_9sK6wfF5uPUEN-5-35" target="LWeH_9sK6wfF5uPUEN-5-11">
          <mxGeometry relative="1" as="geometry">
            <Array as="points">
              <mxPoint x="620" y="485" />
            </Array>
          </mxGeometry>
        </mxCell>
        <mxCell id="LWeH_9sK6wfF5uPUEN-5-37" style="edgeStyle=orthogonalEdgeStyle;rounded=0;orthogonalLoop=1;jettySize=auto;html=1;entryX=0.5;entryY=1;entryDx=0;entryDy=0;exitX=0.208;exitY=0.565;exitDx=0;exitDy=0;exitPerimeter=0;" edge="1" parent="LWeH_9sK6wfF5uPUEN-5-6" source="LWeH_9sK6wfF5uPUEN-5-35" target="LWeH_9sK6wfF5uPUEN-5-9">
          <mxGeometry relative="1" as="geometry">
            <Array as="points">
              <mxPoint x="404" y="485" />
              <mxPoint x="325" y="485" />
            </Array>
          </mxGeometry>
        </mxCell>
        <mxCell id="LWeH_9sK6wfF5uPUEN-5-35" value="FileStream stream" style="ellipse;shape=cloud;whiteSpace=wrap;html=1;fontStyle=1;fontSize=15;fillColor=#eeeeee;strokeColor=#36393d;" vertex="1" parent="LWeH_9sK6wfF5uPUEN-5-6">
          <mxGeometry x="364" y="460" width="190" height="50" as="geometry" />
        </mxCell>
        <mxCell id="LWeH_9sK6wfF5uPUEN-5-26" value="" style="edgeStyle=orthogonalEdgeStyle;rounded=0;orthogonalLoop=1;jettySize=auto;html=1;" edge="1" parent="1" source="LWeH_9sK6wfF5uPUEN-5-15" target="LWeH_9sK6wfF5uPUEN-5-25">
          <mxGeometry relative="1" as="geometry" />
        </mxCell>
        <UserObject label="public interface&amp;nbsp; ISaveManager&lt;div&gt;{&lt;/div&gt;&lt;div&gt;&lt;span style=&quot;white-space: pre;&quot;&gt;&#x9;&lt;/span&gt;void LoadData(GameData _data);&lt;br&gt;&lt;/div&gt;&lt;div&gt;&lt;span style=&quot;white-space: pre;&quot;&gt;&#x9;&lt;/span&gt;void SaveData(ref GameData _data);&lt;br&gt;&lt;/div&gt;&lt;div&gt;}&lt;/div&gt;" name="Alison Donovan" position="System Admin" location="Office 3" email="me@example.com" placeholders="1" id="LWeH_9sK6wfF5uPUEN-5-15">
          <mxCell style="label;image=https://cdn3.iconfinder.com/data/icons/user-avatars-1/512/users-2-128.png;whiteSpace=wrap;html=1;rounded=0;glass=0;fillColor=#e1d5e7;strokeColor=#9673a6;fontSize=20;" vertex="1" parent="1">
            <mxGeometry x="1080" y="-365" width="510" height="160" as="geometry" />
          </mxCell>
        </UserObject>
        <UserObject label="GameData :&amp;nbsp;&lt;div&gt;[System.Serializable]&lt;br&gt;&lt;div&gt;&lt;i style=&quot;font-weight: normal;&quot;&gt;public int currency;&lt;/i&gt;&lt;/div&gt;&lt;div&gt;public GameData()&lt;/div&gt;&lt;div&gt;{&lt;/div&gt;&lt;div&gt;&lt;span style=&quot;white-space: pre;&quot;&gt;&#x9;&lt;/span&gt;currency = 0;&lt;br&gt;&lt;/div&gt;&lt;div&gt;}&lt;/div&gt;&lt;/div&gt;" name="Alison Donovan" position="System Admin" location="Office 3" email="me@example.com" placeholders="1" id="LWeH_9sK6wfF5uPUEN-5-22">
          <mxCell style="label;image=https://cdn3.iconfinder.com/data/icons/user-avatars-1/512/users-2-128.png;whiteSpace=wrap;html=1;rounded=0;glass=0;fillColor=#f9f7ed;strokeColor=#36393d;fontSize=20;" vertex="1" parent="1">
            <mxGeometry x="260" y="-320" width="454" height="180" as="geometry" />
          </mxCell>
        </UserObject>
        <mxCell id="LWeH_9sK6wfF5uPUEN-5-25" value="PlayerManager" style="whiteSpace=wrap;html=1;align=center;fillColor=#e1d5e7;strokeColor=#9673a6;fontStyle=1;spacing=2;spacingLeft=0;rounded=0;glass=0;fontSize=20;" vertex="1" parent="1">
          <mxGeometry x="1170" y="-170" width="330" height="40" as="geometry" />
        </mxCell>
      </root>
    </mxGraphModel>
  </diagram>
</mxfile>
